<svg xmlns="http://www.w3.org/2000/svg" version="1.1" xmlns:xlink="http://www.w3.org/1999/xlink" width="512" height="512" x="0" y="0" viewBox="0 0 512 512" style="enable-background:new 0 0 512 512" xml:space="preserve"><g><g fill-rule="evenodd" clip-rule="evenodd"><path d="M8.533 409.6h25.6a8.533 8.533 0 0 0 0-17.066H17.067v-17.067a8.534 8.534 0 0 0-17.067 0v25.6a8.533 8.533 0 0 0 8.533 8.533zM512 401.067v-25.6a8.533 8.533 0 0 0-17.066 0v17.067h-17.067a8.533 8.533 0 0 0 0 17.066h25.6a8.533 8.533 0 0 0 8.533-8.533zM8.533 298.667a8.533 8.533 0 0 0 8.533-8.533v-17.067a8.533 8.533 0 0 0-17.066 0v17.067a8.534 8.534 0 0 0 8.533 8.533zM8.533 349.867a8.533 8.533 0 0 0 8.533-8.533v-17.067a8.533 8.533 0 0 0-17.066 0v17.067a8.534 8.534 0 0 0 8.533 8.533zM512 273.067c0-4.713-3.82-8.533-8.533-8.533s-8.533 3.82-8.533 8.533v17.067a8.533 8.533 0 0 0 17.066 0zM512 324.267a8.533 8.533 0 0 0-17.066 0v17.067a8.533 8.533 0 0 0 17.066 0zM170.667 409.6h17.067a8.533 8.533 0 0 0 0-17.066h-17.067c-4.713 0-8.533 3.82-8.533 8.533s3.82 8.533 8.533 8.533zM119.467 409.6h17.067a8.533 8.533 0 0 0 0-17.066h-17.067c-4.713 0-8.533 3.82-8.533 8.533s3.82 8.533 8.533 8.533zM68.267 409.6h17.067a8.533 8.533 0 0 0 0-17.066H68.267c-4.713 0-8.533 3.82-8.533 8.533s3.82 8.533 8.533 8.533zM8.533 145.067a8.533 8.533 0 0 0 8.533-8.533v-17.067h17.067a8.533 8.533 0 0 0 0-17.066h-25.6A8.532 8.532 0 0 0 0 110.933v25.6a8.534 8.534 0 0 0 8.533 8.534zM477.867 102.4a8.533 8.533 0 0 0 0 17.066h17.067v17.067a8.533 8.533 0 0 0 17.066 0v-25.6a8.533 8.533 0 0 0-8.533-8.533zM8.533 247.467a8.533 8.533 0 0 0 8.533-8.533v-17.067a8.533 8.533 0 0 0-17.066 0v17.067a8.534 8.534 0 0 0 8.533 8.533zM8.533 196.267a8.533 8.533 0 0 0 8.533-8.533v-17.067a8.533 8.533 0 0 0-17.066 0v17.067a8.534 8.534 0 0 0 8.533 8.533zM512 221.867a8.533 8.533 0 0 0-17.066 0v17.067a8.533 8.533 0 0 0 17.066 0zM512 170.667a8.533 8.533 0 0 0-17.066 0v17.067a8.533 8.533 0 0 0 17.066 0zM162.133 110.933a8.533 8.533 0 0 0 8.533 8.533h17.067a8.533 8.533 0 0 0 0-17.066h-17.067a8.534 8.534 0 0 0-8.533 8.533zM119.467 119.467h17.067a8.533 8.533 0 0 0 0-17.066h-17.067a8.533 8.533 0 0 0 0 17.066zM68.267 119.467h17.067a8.533 8.533 0 0 0 0-17.066H68.267a8.533 8.533 0 0 0 0 17.066zM359.595 121.515c15.701-14.848 47.019-18.773 65.451-19.115 2.475-.085 4.693-.085 6.571 0h12.117a8.533 8.533 0 0 0 8.533-8.533V76.8a8.533 8.533 0 0 0-8.533-8.533h-15.616c-18.944 0-64.853 2.816-91.989 28.416-1.195 1.195-2.219 2.389-3.328 3.499-1.109-1.109-2.133-2.304-3.328-3.499-27.136-25.6-73.045-28.416-91.989-28.416h-15.616a8.533 8.533 0 0 0-8.533 8.533v17.067a8.533 8.533 0 0 0 8.533 8.533h12.117c1.877-.085 4.096-.085 6.571 0 18.432.341 49.749 4.267 65.451 19.115a30.481 30.481 0 0 1 9.728 23.637v127.915H281.6a8.533 8.533 0 0 0-8.533 8.533v17.067a8.533 8.533 0 0 0 8.533 8.533h34.133v59.648a30.481 30.481 0 0 1-9.728 23.637c-15.701 14.848-47.104 18.773-65.451 19.115-2.475.085-4.693.085-6.571 0h-12.117a8.533 8.533 0 0 0-8.533 8.533V435.2a8.533 8.533 0 0 0 8.533 8.533h15.616c19.029 0 64.853-2.816 91.989-28.416 1.195-1.195 2.219-2.389 3.328-3.499 1.109 1.109 2.133 2.304 3.328 3.499 27.136 25.6 72.96 28.416 91.989 28.416h15.616a8.533 8.533 0 0 0 8.533-8.533v-17.067a8.533 8.533 0 0 0-8.533-8.533h-12.117c-1.877.085-4.096.085-6.571 0-18.432-.341-49.749-4.267-65.451-19.115a30.483 30.483 0 0 1-9.728-23.637V307.2H384a8.533 8.533 0 0 0 8.533-8.533V281.6a8.533 8.533 0 0 0-8.533-8.533h-34.133V145.152a30.478 30.478 0 0 1 9.728-23.637z" fill="#d2d3e0" opacity="1" data-original="#000000"></path></g></g></svg>