<svg xmlns="http://www.w3.org/2000/svg" version="1.1" xmlns:xlink="http://www.w3.org/1999/xlink" xmlns:svgjs="http://svgjs.com/svgjs" width="512" height="512" x="0" y="0" viewBox="0 0 32 32" style="enable-background:new 0 0 512 512" xml:space="preserve" class=""><g><path d="M29.394 22.242a3.85 3.85 0 0 0-3.078-3.765v-7.151C26.316 5.626 21.69 1 16 1S5.684 5.626 5.684 11.326v7.151a3.85 3.85 0 0 0-3.078 3.765 3.843 3.843 0 0 0 3.842 3.832h19.104a3.843 3.843 0 0 0 3.842-3.832zM16 31a5.576 5.576 0 0 0 5.158-3.474H10.842A5.576 5.576 0 0 0 16 31z" fill="#d2d3e0" data-original="#000000" opacity="1" class=""></path></g></svg>