<svg width="512" height="512" viewBox="0 0 512 512" fill="none" xmlns="http://www.w3.org/2000/svg">
<path d="M352 366.64V145.36C352 138.634 349.328 132.184 344.572 127.428C339.816 122.672 333.366 120 326.64 120H185.36C178.634 120 172.184 122.672 167.428 127.428C162.672 132.184 160 138.634 160 145.36V366.64C160 373.366 162.672 379.816 167.428 384.572C172.184 389.328 178.634 392 185.36 392H326.64C333.366 392 339.816 389.328 344.572 384.572C349.328 379.816 352 373.366 352 366.64ZM176 366.64V145.36C176 142.878 176.986 140.497 178.741 138.741C180.497 136.986 182.878 136 185.36 136H326.64C329.122 136 331.503 136.986 333.259 138.741C335.014 140.497 336 142.878 336 145.36V366.64C336 367.869 335.758 369.086 335.288 370.222C334.817 371.358 334.128 372.389 333.259 373.259C332.389 374.128 331.358 374.817 330.222 375.288C329.086 375.758 327.869 376 326.64 376H185.36C184.131 376 182.914 375.758 181.778 375.288C180.642 374.817 179.611 374.128 178.741 373.259C177.872 372.389 177.183 371.358 176.712 370.222C176.242 369.086 176 367.869 176 366.64Z" fill="#D2D3E0"/>
</svg>
