<svg width="9" height="10" viewBox="0 0 25 30" fill="#D2D3E0" xmlns="http://www.w3.org/2000/svg">
<path d="M12.9189 15.954C7.2879 15.954 2.56908 14.34 1.28073 12.164C1.05421 12.547 0.921997 12.945 0.921997 13.358V16.919C0.921997 19.67 6.29473 21.902 12.9189 21.902C19.5472 21.902 24.922 19.67 24.922 16.919V13.358C24.922 12.945 24.7877 12.547 24.5592 12.164C23.2708 14.339 18.5561 15.954 12.9189 15.954Z" fill="#D2D3E0"/>
<path d="M12.9189 23.31C7.2879 23.31 2.56908 21.694 1.28073 19.522C1.05421 19.903 0.921997 20.301 0.921997 20.713V24.277C0.921997 27.029 6.29473 29.26 12.9189 29.26C19.5472 29.26 24.922 27.03 24.922 24.277V20.713C24.922 20.301 24.7877 19.903 24.5592 19.523C23.2708 21.694 18.5561 23.31 12.9189 23.31Z" fill="#D2D3E0"/>
<path d="M24.594 5.04199C24.3583 7.05799 19.2315 8.67099 12.9189 8.67099C6.60939 8.67099 1.48264 7.05799 1.24793 5.04299C1.04192 5.40899 0.921997 5.79099 0.921997 6.18399V9.74499C0.921997 12.497 6.29473 14.728 12.9189 14.728C19.5472 14.728 24.922 12.498 24.922 9.74499V6.18399C24.922 5.79099 24.8 5.40899 24.594 5.04199Z" fill="#D2D3E0"/>
<path d="M12.9189 7.541C19.3791 7.541 24.6135 5.854 24.6135 3.77C24.6135 1.688 19.3791 0 12.9189 0C6.46281 0.001 1.22639 1.689 1.22639 3.771C1.22639 5.854 6.46281 7.541 12.9189 7.541Z" fill="#D2D3E0"/>
</svg>
