<svg id="Layer_2_00000111876249845261016800000003812710280750533055_" enable-background="new 0 0 512 512" viewBox="0 0 512 512" xmlns="http://www.w3.org/2000/svg"><g id="Icon"><g id="_19"><g><path d="m502.7 224.1v235c0 29.2-23.7 52.9-52.9 52.9h-387.7c-29.2 0-52.9-23.7-52.9-52.9v-235l209.5-208.7c20.6-20.6 54-20.6 74.7 0z" fill="#ff9d00"/><path d="m103.5 58.9h305.5c29.2 0 52.9 23.7 52.9 52.9v305.5c0 29.2-23.7 52.9-52.9 52.9h-305.5c-29.2 0-52.9-23.7-52.9-52.9v-305.6c0-29.2 23.7-52.8 52.9-52.8z" fill="#f4eee6"/><path d="m502.7 224.1v235c0 29.2-23.7 52.9-52.9 52.9h-387.7c-29.2 0-52.9-23.7-52.9-52.9v-234.3l246.4 246.4z" fill="#ffbe1d"/><path d="m487.4 496.4c-8.3 8.4-19.5 14-31.9 15.4l-395.2.2c-13.9-.5-26.5-6.4-35.7-15.6l194-194c20.6-20.6 54.1-20.6 74.8 0z" fill="#ffe000"/></g><g id="Badge"><circle cx="256" cy="172.9" fill="#ef0c38" r="88.1"/><path d="m245.1 191.5c0-6.7.8-12 2.3-15.9s4-7.2 7.4-10.1c3.4-2.8 6-5.4 7.7-7.8 1.8-2.4 2.7-5 2.7-7.8 0-6.9-3-10.4-9-10.4-2.8 0-5 1-6.7 3s-2.6 4.8-2.7 8.2h-23.3c.1-9.2 3-16.3 8.7-21.4s13.7-7.7 24-7.7 18.2 2.4 23.8 7.1 8.4 11.4 8.4 20.2c0 3.8-.8 7.3-2.3 10.4s-4 6.3-7.3 9.6l-7.9 7.4c-2.2 2.2-3.8 4.4-4.7 6.6s-1.4 5.1-1.5 8.6zm-2.8 20.9c0-3.4 1.2-6.2 3.7-8.4 2.4-2.2 5.5-3.3 9.2-3.3s6.7 1.1 9.2 3.3 3.7 5 3.7 8.4-1.2 6.2-3.7 8.4-5.5 3.3-9.2 3.3-6.7-1.1-9.2-3.3-3.7-5-3.7-8.4z" fill="#fff"/></g></g></g></svg>