<svg width="10" height="10" viewBox="0 0 10 10" fill="none" xmlns="http://www.w3.org/2000/svg">
<g clip-path="url(#clip0_54_172)">
<path d="M8.76787 2.30974H5.60284C5.47437 2.30974 5.34888 2.25699 5.26222 2.16732L4.27466 1.12701C4.03728 0.89039 3.71249 0.766796 3.38355 0.768691H1.23211C0.552753 0.768671 0 1.32142 0 2.00076V7.99924C0 8.6786 0.552753 9.23135 1.23211 9.23135H8.77241H8.77354C9.45252 9.22834 10.003 8.67295 9.99998 7.99547V3.54183C9.99998 2.86248 9.44723 2.30974 8.76787 2.30974ZM9.24641 7.997C9.24754 8.26075 9.03391 8.47664 8.77166 8.47778H1.23211C0.968358 8.47778 0.753592 8.26301 0.753592 7.99926V2.00076C0.753592 1.73701 0.968358 1.52224 1.23211 1.52185H3.39335C3.39749 1.52185 3.40163 1.52185 3.40579 1.52185C3.53163 1.52185 3.65372 1.57197 3.73585 1.65336L4.71814 2.68876C4.94872 2.92689 5.27126 3.0633 5.60284 3.0633H8.76787C9.03162 3.0633 9.24639 3.27806 9.24639 3.54181V7.997H9.24641Z" fill="#D2D3E0"/>
</g>
<defs>
<clipPath id="clip0_54_172">
<rect width="10" height="10" fill="#D2D3E0"/>
</clipPath>
</defs>
</svg>
