<svg width="10" height="10" viewBox="0 0 10 10" fill="none" xmlns="http://www.w3.org/2000/svg">
<g clip-path="url(#clip0_54_168)">
<path d="M3.2682 6.49371C3.2682 6.10373 3.52824 5.77334 3.88404 5.66685C3.81652 5.54228 3.78068 5.40213 3.78068 5.25646C3.78068 5.10734 3.81848 4.9641 3.88914 4.83734C3.75168 4.88057 3.60541 4.90396 3.45369 4.90396C2.65273 4.90396 2.00342 4.25465 2.00342 3.45369C2.00342 2.65273 2.65273 2.00342 3.45369 2.00342C4.25465 2.00342 4.90396 2.65273 4.90396 3.45369C4.90396 3.60543 4.88057 3.75168 4.83734 3.88914C4.9641 3.81848 5.10734 3.78068 5.25646 3.78068C5.40213 3.78068 5.54228 3.81652 5.66685 3.88406C5.77334 3.52824 6.10373 3.2682 6.49371 3.2682H6.90738V2.94832C6.90738 2.78652 6.77621 2.65535 6.61441 2.65535H6.0923C6.03955 2.47943 5.96971 2.31092 5.88467 2.15174L6.25318 1.78322C6.3676 1.66881 6.3676 1.48332 6.25318 1.36891L5.5385 0.654219C5.42408 0.539805 5.23859 0.539805 5.12418 0.654219L4.75742 1.02094C4.59775 0.93498 4.42863 0.864414 4.25201 0.811015V0.292969C4.25201 0.131172 4.12084 0 3.95904 0H2.94832C2.78652 0 2.65535 0.131172 2.65535 0.292969V0.810996C2.47875 0.864394 2.30961 0.93498 2.14994 1.02092L1.78322 0.654219C1.66881 0.539805 1.48332 0.539805 1.36891 0.654219L0.654219 1.36891C0.539805 1.48332 0.539805 1.66881 0.654219 1.78322L1.02273 2.15174C0.937676 2.31092 0.867851 2.47943 0.815098 2.65535H0.292969C0.131172 2.65535 0 2.78652 0 2.94832V3.95904C0 4.12084 0.131172 4.25201 0.292969 4.25201H0.818535C0.871719 4.42652 0.941719 4.59369 1.02674 4.75162L0.654219 5.12414C0.539805 5.23855 0.539805 5.42404 0.654219 5.53846L1.36891 6.25314C1.48332 6.36756 1.66881 6.36756 1.78322 6.25314L2.15754 5.87883C2.31498 5.96295 2.48152 6.03219 2.65535 6.08475V6.61437C2.65535 6.77617 2.78652 6.90734 2.94832 6.90734H3.2682V6.49371Z" fill="#D2D3E0"/>
<path d="M9.99995 7.36043V6.49371C9.99995 6.34074 9.87594 6.21675 9.72299 6.21675H9.27473C9.22778 6.06023 9.16565 5.91031 9.08998 5.76867L9.40635 5.4523C9.51452 5.34414 9.51452 5.16879 9.40635 5.06062L8.79348 4.44775C8.68532 4.33959 8.50996 4.33959 8.4018 4.44775L8.08704 4.76252C7.94498 4.68603 7.7945 4.62324 7.63735 4.57574V4.13111C7.63735 3.97816 7.51334 3.85416 7.3604 3.85416H6.49368C6.34071 3.85416 6.21672 3.97816 6.21672 4.13111V4.57574C6.05959 4.62326 5.90909 4.68605 5.76704 4.76252L5.45227 4.44775C5.34411 4.33959 5.16875 4.33959 5.06059 4.44775L4.44772 5.06062C4.33956 5.16879 4.33956 5.34414 4.44772 5.4523L4.76409 5.76867C4.6884 5.91031 4.62627 6.06023 4.57934 6.21675H4.13108C3.97813 6.21675 3.85413 6.34076 3.85413 6.49371V7.36043C3.85413 7.5134 3.97813 7.63738 4.13108 7.63738H4.58241C4.62973 7.79265 4.69202 7.9414 4.76766 8.08191L4.44772 8.40185C4.33956 8.51002 4.33956 8.68537 4.44772 8.79353L5.06059 9.4064C5.16875 9.51457 5.34411 9.51457 5.45227 9.4064L5.77379 9.08488C5.91387 9.15972 6.06206 9.22134 6.21672 9.2681V9.72306C6.21672 9.87603 6.34073 10 6.49368 10H7.3604C7.51336 10 7.63735 9.87601 7.63735 9.72306V9.2681C7.79202 9.22134 7.9402 9.15972 8.08028 9.08488L8.4018 9.4064C8.50996 9.51457 8.68532 9.51457 8.79348 9.4064L9.40635 8.79353C9.51452 8.68537 9.51452 8.51002 9.40635 8.40185L9.08641 8.08191C9.16206 7.9414 9.22434 7.79267 9.27166 7.63738H9.72299C9.87594 7.63738 9.99995 7.5134 9.99995 7.36043ZM7.00797 8.1633C6.26122 8.21103 5.64303 7.59285 5.69077 6.84609C5.73022 6.22884 6.22879 5.73027 6.84604 5.69082C7.5928 5.64308 8.21098 6.26125 8.16325 7.00802C8.12379 7.62527 7.62522 8.12384 7.00797 8.1633Z" fill="#D2D3E0"/>
</g>
<defs>
<clipPath id="clip0_54_168">
<rect width="10" height="10" fill="#D2D3E0"/>
</clipPath>
</defs>
</svg>
