<svg xmlns="http://www.w3.org/2000/svg" version="1.1" xmlns:xlink="http://www.w3.org/1999/xlink" width="512" height="512" x="0" y="0" viewBox="0 0 8.467 8.467" style="enable-background:new 0 0 512 512" xml:space="preserve"><g><path fill-rule="evenodd" d="M2.12.794a.8.8 0 0 0-.745.53h5.73a.8.8 0 0 0-.746-.53zm-1.06 1.06a.801.801 0 0 0-.796.797v4.238c0 .436.36.797.797.797H7.42a.8.8 0 0 0 .794-.797V2.651a.8.8 0 0 0-.794-.797zm3.175 1.057c.15-.003.273.12.27.27v2.54l.609-.608a.265.265 0 1 1 .373.374l-1.06 1.06a.265.265 0 0 1-.374 0l-1.06-1.06a.265.265 0 0 1 .159-.454.265.265 0 0 1 .215.08l.608.609V3.18a.265.265 0 0 1 .26-.27z" paint-order="stroke fill markers" fill="#d2d3e0" opacity="1" data-original="#000000"></path></g></svg>