<svg width="512" height="512" viewBox="0 0 512 512" fill="none" xmlns="http://www.w3.org/2000/svg">
<path d="M256 310.64V89.36C256 82.6341 253.328 76.1837 248.572 71.4278C243.816 66.6718 237.366 64 230.64 64H89.36C82.6341 64 76.1837 66.6718 71.4278 71.4278C66.6718 76.1837 64 82.6341 64 89.36V310.64C64 317.366 66.6718 323.816 71.4278 328.572C76.1837 333.328 82.6341 336 89.36 336H230.64C237.366 336 243.816 333.328 248.572 328.572C253.328 323.816 256 317.366 256 310.64ZM80 310.64V89.36C80 86.8776 80.9861 84.4968 82.7415 82.7415C84.4968 80.9861 86.8776 80 89.36 80H230.64C233.122 80 235.503 80.9861 237.259 82.7415C239.014 84.4968 240 86.8776 240 89.36V310.64C240 311.869 239.758 313.086 239.288 314.222C238.817 315.358 238.128 316.389 237.259 317.259C236.389 318.128 235.358 318.817 234.222 319.288C233.086 319.758 231.869 320 230.64 320H89.36C88.1308 320 86.9137 319.758 85.7781 319.288C84.6425 318.817 83.6106 318.128 82.7415 317.259C81.8723 316.389 81.1829 315.358 80.7125 314.222C80.2421 313.086 80 311.869 80 310.64Z" fill="#D2D3E0"/>
<path d="M295.28 396.72C300.987 396.706 306.53 394.814 311.055 391.337C315.581 387.86 318.836 382.991 320.32 377.48L378.6 160C380.373 153.37 379.445 146.307 376.018 140.361C372.591 134.414 366.946 130.07 360.32 128.28L281.44 106.4C279.393 105.832 277.203 106.101 275.354 107.148C273.505 108.194 272.148 109.933 271.58 111.98C271.012 114.027 271.281 116.217 272.328 118.066C273.374 119.915 275.113 121.272 277.16 121.84L356 143.68C358.543 144.377 360.711 146.043 362.04 148.32C362.735 149.458 363.193 150.726 363.386 152.045C363.578 153.365 363.501 154.711 363.16 156L304.88 373.36C304.548 374.62 303.966 375.801 303.169 376.831C302.372 377.862 301.376 378.722 300.24 379.36C299.114 380.014 297.87 380.439 296.58 380.611C295.289 380.782 293.978 380.697 292.72 380.36L177.6 349.52C176.557 349.159 175.45 349.019 174.349 349.106C173.249 349.194 172.178 349.509 171.206 350.031C170.233 350.553 169.378 351.27 168.696 352.138C168.014 353.006 167.519 354.006 167.242 355.075C166.965 356.143 166.913 357.258 167.087 358.348C167.262 359.438 167.661 360.48 168.258 361.409C168.855 362.337 169.638 363.132 170.557 363.743C171.477 364.354 172.513 364.769 173.6 364.96L288.56 396C290.759 396.53 293.018 396.773 295.28 396.72Z" fill="#D2D3E0"/>
<path d="M458.32 233.6L394 196.48C392.172 195.524 390.044 195.311 388.063 195.886C386.081 196.461 384.398 197.779 383.366 199.565C382.333 201.352 382.031 203.468 382.521 205.472C383.012 207.476 384.259 209.213 386 210.32L450.32 247.48C451.412 248.106 452.369 248.942 453.137 249.938C453.905 250.935 454.469 252.074 454.796 253.289C455.123 254.504 455.207 255.772 455.043 257.02C454.879 258.268 454.47 259.471 453.84 260.56L343.4 452C342.774 453.092 341.939 454.049 340.942 454.817C339.945 455.586 338.806 456.149 337.591 456.476C336.376 456.803 335.108 456.887 333.86 456.723C332.612 456.559 331.409 456.15 330.32 455.52L226.32 395.52C224.479 394.459 222.293 394.173 220.241 394.724C218.189 395.276 216.441 396.62 215.38 398.46C214.319 400.301 214.033 402.487 214.584 404.539C215.136 406.591 216.479 408.339 218.32 409.4L322.32 469.4C328.203 472.789 335.19 473.703 341.747 471.94C348.303 470.177 353.89 465.882 357.28 460L467.68 268.76C469.391 265.841 470.507 262.612 470.962 259.26C471.417 255.907 471.204 252.497 470.333 249.228C469.463 245.958 467.953 242.894 465.891 240.211C463.829 237.529 461.256 235.282 458.32 233.6Z" fill="#D2D3E0"/>
</svg>
