<svg xmlns="http://www.w3.org/2000/svg" version="1.1" xmlns:xlink="http://www.w3.org/1999/xlink" width="512" height="512" x="0" y="0" viewBox="0 0 24 24" style="enable-background:new 0 0 512 512" xml:space="preserve" class=""><g><circle cx="12" cy="12" r="2" fill="#d2d3e0" opacity="1" data-original="#000000"></circle><path d="M21.94 11.65A10.531 10.531 0 0 0 12 5a10.531 10.531 0 0 0-9.94 6.65 1.05 1.05 0 0 0 0 .7A10.531 10.531 0 0 0 12 19a10.531 10.531 0 0 0 9.94-6.65 1.05 1.05 0 0 0 0-.7zM12.002 16H12a4 4 0 1 1-.004-8 4 4 0 0 1 .006 8z" fill="#d2d3e0" opacity="1" data-original="#000000"></path></g></svg>