<svg xmlns="http://www.w3.org/2000/svg" version="1.1" xmlns:xlink="http://www.w3.org/1999/xlink" width="512" height="512" x="0" y="0" viewBox="0 0 512 512" style="enable-background:new 0 0 512 512" xml:space="preserve"><g><path d="M256 42.667c-50.261 0-96.491 17.753-133.054 47.084-4.595 3.686-10.478 2.703-13.345-2.444l-8.434-15.14C91.404 54.611 64.993 59.052 61.5 78.833L38.875 207.042a21.298 21.298 0 0 0 5.417 18.25 21.328 21.328 0 0 0 19.292 6.458l128.25-22.625c19.782-3.493 24.223-29.904 6.667-39.667l-13.633-7.571c-5.15-2.86-5.642-8.234-.785-11.565C204.504 136.311 229.127 128 256 128c50.783 0 94.08 29.226 114.917 71.542 10.399 21.151 35.977 29.863 57.125 19.458 21.135-10.414 29.827-35.988 19.417-57.125C412.655 91.198 339.678 42.667 256 42.667zM256 469.333c50.261 0 96.491-17.753 133.054-47.084 4.595-3.686 10.478-2.703 13.345 2.444l8.434 15.14c9.762 17.556 36.174 13.115 39.667-6.667l22.625-128.208a21.298 21.298 0 0 0-5.417-18.25 21.328 21.328 0 0 0-19.292-6.458l-128.25 22.625c-19.782 3.493-24.223 29.904-6.667 39.667l13.633 7.571c5.15 2.86 5.642 8.234.785 11.565C307.496 375.689 282.873 384 256 384c-50.783 0-94.08-29.226-114.917-71.542-10.399-21.151-35.977-29.863-57.125-19.458-21.135 10.414-29.827 35.988-19.417 57.125C99.345 420.802 172.322 469.333 256 469.333z" fill="#d2d3e0" opacity="1" data-original="#000000"></path></g></svg>