<svg width="10" height="10" viewBox="0 0 18 18" fill="none" xmlns="http://www.w3.org/2000/svg">
<g clip-path="url(#clip0_91_545)">
<path d="M12.6327 5.53091C12.42 5.40545 12.18 5.34 11.94 5.34C11.8255 5.34 11.7137 5.35363 11.5991 5.38363C10.8709 5.56909 10.4291 6.31363 10.6146 7.04181C10.8 7.77 11.5418 8.21181 12.2727 8.02636C12.6246 7.93636 12.9218 7.71272 13.1073 7.40181C13.2927 7.08818 13.3446 6.72272 13.2546 6.36818C13.1646 6.01363 12.9464 5.71636 12.6327 5.53091Z" fill="#DF7745"/>
<path d="M15.9656 0.834543C15.0328 0.949089 14.1192 1.16454 13.2383 1.47C14.5746 2.65363 15.8319 3.93272 16.9856 5.28545C17.3101 4.40727 17.5419 3.48 17.6646 2.50363C17.7846 1.53 16.9392 0.714543 15.9656 0.834543Z" fill="#DF7745"/>
<path d="M12.66 1.68817C10.2245 2.66453 8.10545 4.3609 6.74454 6.66817C6.21272 7.56817 5.60999 8.66181 5.63999 9.73362C5.65636 10.2954 6.24817 10.8 6.59999 11.1982C7.03908 11.6945 7.52181 12.1473 8.05363 12.5427C8.42181 12.8154 8.89363 12.9245 9.33545 12.8073C10.5436 12.4854 11.8445 11.8854 12.7473 11.1327C14.5036 9.66544 15.8918 7.90363 16.7591 5.86363C15.5073 4.37181 14.1327 2.97272 12.66 1.68817ZM13.5791 7.67726C13.32 8.11635 12.9027 8.42726 12.4091 8.55272C12.2509 8.59363 12.0927 8.61272 11.9373 8.61272C11.0864 8.61272 10.3091 8.03726 10.0882 7.17544C9.82908 6.15544 10.4454 5.11363 11.4654 4.85453C11.9591 4.72908 12.4718 4.80272 12.9109 5.06181C13.35 5.3209 13.6609 5.73817 13.7864 6.23181C13.9145 6.72544 13.8409 7.23817 13.5791 7.67726Z" fill="#DF7745"/>
<path d="M5.10829 9.36819C5.19283 8.30183 5.74647 7.2791 6.27283 6.38728C6.49374 6.01365 6.73374 5.65365 6.99829 5.30728C4.14556 5.67274 2.3592 6.81001 0.791016 8.42728C2.22556 8.38365 3.90829 8.56092 5.10829 9.36819Z" fill="#DF7745"/>
<path d="M9.47455 13.3309C9.45546 13.3364 9.43637 13.3418 9.41455 13.3445C9.87546 14.6591 9.83182 15.7364 9.93819 17.0182C11.9482 15.1227 13.2191 13.5927 13.4836 11.2118C13.3555 11.3236 13.2273 11.4355 13.0936 11.5473C12.1964 12.2973 10.8436 12.9627 9.47455 13.3309Z" fill="#DF7745"/>
<path d="M4.40454 12.1582C4.37181 12.1146 4.31999 12.0818 4.26545 12.0737C4.18636 12.06 4.05272 12.0409 2.20363 13.4237C0.354539 14.8091 0.338176 14.9427 0.327267 15.0218C0.319085 15.0764 0.335449 15.1364 0.370903 15.18C0.409085 15.2264 0.439085 15.2673 0.504539 15.2673C0.681812 15.2673 1.10999 15 2.56636 13.9091C4.57909 12.4009 4.53272 12.3355 4.40454 12.1582Z" fill="#DF7745"/>
<path d="M4.6854 14.0564C5.11359 13.5355 5.09995 13.3827 5.0945 13.3336C5.08904 13.2791 5.05631 13.2164 5.0154 13.1809C4.84631 13.0418 4.65813 13.2164 4.56813 13.2982C4.4645 13.3909 4.34177 13.5246 4.21904 13.6718C3.70086 14.3018 3.77177 14.4491 3.88904 14.5473C3.92722 14.5773 3.96813 14.6018 4.02268 14.6018C4.14268 14.6046 4.33086 14.4873 4.6854 14.0564Z" fill="#DF7745"/>
<path d="M6.1199 13.6827C5.89899 13.5709 5.89899 13.5736 4.99353 15.1473L4.84353 15.4064C3.92171 17.01 3.92171 17.01 4.12899 17.1436C4.16171 17.1655 4.20535 17.1764 4.24626 17.1764C4.26262 17.1764 4.27899 17.1736 4.29262 17.1709C4.55444 17.1082 5.34535 15.7446 5.43262 15.5918C5.46808 15.5291 6.30535 14.0727 6.22626 13.8109C6.2099 13.7564 6.16899 13.7073 6.1199 13.6827Z" fill="#DF7745"/>
<path d="M6.19096 11.5582C6.13096 11.4927 6.06551 11.4218 5.99732 11.3482C5.77914 11.1191 5.53642 10.8573 5.35369 10.5573C5.20096 11.2473 5.22551 11.9864 5.69187 12.5482C6.13914 13.0882 6.98187 13.0909 7.71005 12.9682C7.17823 12.5673 6.66551 12.0927 6.19096 11.5582Z" fill="#DF7745"/>
</g>
<defs>
<clipPath id="clip0_91_545">
<rect width="18" height="18" fill="white"/>
</clipPath>
</defs>
</svg>
