<svg xmlns="http://www.w3.org/2000/svg" version="1.1" xmlns:xlink="http://www.w3.org/1999/xlink" width="512" height="512" x="0" y="0" viewBox="0 0 512 512" style="enable-background:new 0 0 512 512" xml:space="preserve"><g><path d="M246.933 262.676c7.778-13.638 22.749-22.134 39.067-22.134 5.248 0 10.225 1.157 15 2.803V135c0-8.291-6.709-15-15-15H46c-8.291 0-15 6.709-15 15v240c0 8.291 6.709 15 15 15h128.176z" fill="#d2d3e0" opacity="1" data-original="#000000"></path><path d="M346 0c-58.588 0-108.071 37.734-126.707 90H286c24.814 0 45 20.186 45 45v134c4.98.569 9.981 1 15 1 74.443 0 135-60.557 135-135S420.443 0 346 0zM406 512H166a15.014 15.014 0 0 1-12.979-7.471 15.012 15.012 0 0 1-.044-14.971l120-212c5.332-9.346 20.713-9.346 26.045 0l120 212a15.012 15.012 0 0 1-.044 14.971A15.012 15.012 0 0 1 406 512z" fill="#d2d3e0" opacity="1" data-original="#000000"></path></g></svg>