<svg xmlns="http://www.w3.org/2000/svg" version="1.1" xmlns:xlink="http://www.w3.org/1999/xlink" xmlns:svgjs="http://svgjs.com/svgjs" width="512" height="512" x="0" y="0" viewBox="0 0 32 32" style="enable-background:new 0 0 512 512" xml:space="preserve" class=""><g><path d="M16 31.5c.83 0 1.5-.67 1.5-1.5v-6.4c4.34-.72 7.66-4.48 7.66-9.02v-4.21h1.14c.82 0 1.5-.67 1.5-1.5s-.68-1.5-1.5-1.5h-3.52V2c0-.83-.67-1.5-1.5-1.5s-1.5.67-1.5 1.5v5.37h-7.56V2c0-.83-.67-1.5-1.5-1.5s-1.5.67-1.5 1.5v5.37H5.7c-.82 0-1.5.67-1.5 1.5s.68 1.5 1.5 1.5h1.14v4.21c0 4.54 3.32 8.3 7.66 9.02V30c0 .83.67 1.5 1.5 1.5z" fill="#d2d3e0" data-original="#000000" opacity="1"></path></g></svg>