<svg xmlns="http://www.w3.org/2000/svg" version="1.1" xmlns:xlink="http://www.w3.org/1999/xlink" width="512" height="512" x="0" y="0" viewBox="0 0 512.01 512.01" style="enable-background:new 0 0 512 512" xml:space="preserve"><g><path d="M467.68 347.269s72.992-165.056-152.096-315.264c0 0 92.16 113.824 44.736 240.992 0 0-165.376-115.072-248.576-197.6 0 0 103.968 146.784 141.28 176.736 0 0-62.048-31.52-205.824-151.552 0 0 164.928 211.168 242.688 255.264 0 0-117.664 78.912-289.888-32.448 0 0 90.592 156.608 281.696 156.608 85.92 0 111.104-43.296 153.664-43.296 44.032 0 70.56 43.296 70.56 43.296 25.696-61.984-38.24-132.736-38.24-132.736z" fill="#d2d3e0" opacity="1" data-original="#000000"></path></g></svg>